<?xml version="1.0" encoding="UTF-8"?>
<!DOCTYPE svg PUBLIC "-//W3C//DTD SVG 1.1//EN" "http://www.w3.org/Graphics/SVG/1.1/DTD/svg11.dtd">
<svg xmlns="http://www.w3.org/2000/svg" version="1.1" width="380px" height="468px" style="shape-rendering:geometricPrecision; text-rendering:geometricPrecision; image-rendering:optimizeQuality; fill-rule:evenodd; clip-rule:evenodd" xmlns:xlink="http://www.w3.org/1999/xlink">
<g><path style="opacity:1" fill="#00dfb9" d="M 211.5,-0.5 C 214.167,-0.5 216.833,-0.5 219.5,-0.5C 233.857,2.01961 243.024,10.3529 247,24.5C 247.333,85.8333 247.667,147.167 248,208.5C 249.726,213.512 252.726,214.512 257,211.5C 257.333,210.5 257.667,209.5 258,208.5C 258.333,146.5 258.667,84.5 259,22.5C 262.267,9.47482 270.434,1.80815 283.5,-0.5C 286.167,-0.5 288.833,-0.5 291.5,-0.5C 304.522,2.01605 313.022,9.68271 317,22.5C 317.333,84.5 317.667,146.5 318,208.5C 319.212,213.514 322.045,214.681 326.5,212C 327.191,210.933 327.691,209.766 328,208.5C 328.016,165.108 328.683,121.774 330,78.5C 339.627,62.5797 352.794,59.0797 369.5,68C 374.84,73.1861 378.173,79.3528 379.5,86.5C 379.5,173.833 379.5,261.167 379.5,348.5C 374.68,398.646 349.68,434.812 304.5,457C 290.226,462.737 275.56,466.237 260.5,467.5C 255.5,467.5 250.5,467.5 245.5,467.5C 206.464,466.766 171.131,454.933 139.5,432C 127.063,421.565 115.229,410.398 104,398.5C 70.3683,361.2 36.3683,324.2 2,287.5C 1.15532,285.389 0.321983,283.389 -0.5,281.5C -0.5,279.833 -0.5,278.167 -0.5,276.5C 0.672918,271.795 3.33958,267.961 7.5,265C 29.2497,250.062 51.2497,249.729 73.5,264C 84.5339,274.702 95.8672,285.036 107.5,295C 137.201,295.048 166.868,295.715 196.5,297C 207.725,299.781 218.059,304.448 227.5,311C 232.703,315.542 237.87,320.042 243,324.5C 246.976,323.214 248.31,320.547 247,316.5C 233.603,301.708 217.103,291.875 197.5,287C 169.533,285.561 141.533,285.061 113.5,285.5C 113.333,210.833 113.5,136.166 114,61.5C 117.588,45.7838 127.422,37.1171 143.5,35.5C 159.43,36.7059 169.263,45.0393 173,60.5C 173.333,110.5 173.667,160.5 174,210.5C 176.952,214.482 179.952,214.482 183,210.5C 183.333,149.5 183.667,88.5 184,27.5C 187.387,12.2807 196.554,2.94733 211.5,-0.5 Z"/></g>
</svg>
