<?xml version="1.0" encoding="UTF-8"?>
<!DOCTYPE svg PUBLIC "-//W3C//DTD SVG 1.1//EN" "http://www.w3.org/Graphics/SVG/1.1/DTD/svg11.dtd">
<svg xmlns="http://www.w3.org/2000/svg" version="1.1" width="332px" height="359px" style="shape-rendering:geometricPrecision; text-rendering:geometricPrecision; image-rendering:optimizeQuality; fill-rule:evenodd; clip-rule:evenodd" xmlns:xlink="http://www.w3.org/1999/xlink">
<g><path style="opacity:1" fill="#fd2bf1" d="M 125.5,-0.5 C 127.833,-0.5 130.167,-0.5 132.5,-0.5C 149.709,2.53293 160.876,12.5329 166,29.5C 166.5,56.1646 166.667,82.8313 166.5,109.5C 141.167,109.5 115.833,109.5 90.5,109.5C 90.0634,82.4667 90.5634,55.4667 92,28.5C 97.4686,12.1915 108.635,2.52487 125.5,-0.5 Z"/></g>
<g><path style="opacity:1" fill="#fd2bf1" d="M 211.5,-0.5 C 213.5,-0.5 215.5,-0.5 217.5,-0.5C 234.915,2.46673 246.082,12.4667 251,29.5C 251.5,56.8313 251.667,84.1646 251.5,111.5C 248.834,111.067 246.168,110.567 243.5,110C 221.169,109.5 198.836,109.333 176.5,109.5C 176.333,84.4978 176.5,59.4978 177,34.5C 180.012,14.322 191.512,2.65536 211.5,-0.5 Z"/></g>
<g><path style="opacity:1" fill="#fd2bf1" d="M 42.5,3.5 C 59.5798,1.45239 71.7465,8.11906 79,23.5C 80.467,52.1163 80.967,80.7829 80.5,109.5C 57.6682,107.995 37.1682,113.995 19,127.5C 18.3333,94.1667 18.3333,60.8333 19,27.5C 22.349,14.9853 30.1824,6.98533 42.5,3.5 Z"/></g>
<g><path style="opacity:1" fill="#fd2bf1" d="M 331.5,82.5 C 331.5,104.167 331.5,125.833 331.5,147.5C 323.359,171.24 307.026,179.74 282.5,173C 270.255,167.418 263.422,157.918 262,144.5C 261.333,124.833 261.333,105.167 262,85.5C 265.557,65.9404 277.223,55.607 297,54.5C 315.193,55.6697 326.693,65.003 331.5,82.5 Z"/></g>
<g><path style="opacity:1" fill="#fd2bf1" d="M 331.5,170.5 C 331.5,190.167 331.5,209.833 331.5,229.5C 323.907,285.2 294.574,324.7 243.5,348C 228.542,353.742 213.209,357.242 197.5,358.5C 185.833,358.5 174.167,358.5 162.5,358.5C 90.2343,351.725 39.7343,315.058 11,248.5C 4.38248,229.911 0.549148,210.911 -0.5,191.5C -0.5,189.833 -0.5,188.167 -0.5,186.5C 2.57242,153.586 19.9058,132.086 51.5,122C 84.9676,120.854 118.468,120.354 152,120.5C 184.25,120.34 216.417,120.84 248.5,122C 256.074,152.529 246.074,175.529 218.5,191C 212.672,193.276 206.672,194.942 200.5,196C 168.5,196.333 136.5,196.667 104.5,197C 100.412,200.49 100.745,203.49 105.5,206C 144.558,208.393 167.058,228.893 173,267.5C 173.333,276.5 173.667,285.5 174,294.5C 177.473,298.717 180.473,298.384 183,293.5C 188.438,256.912 176.271,228.078 146.5,207C 164.5,206.667 182.5,206.333 200.5,206C 226.748,201.59 245.748,187.423 257.5,163.5C 279.83,190.969 304.496,193.302 331.5,170.5 Z"/></g>
</svg>
