<?xml version="1.0" encoding="UTF-8"?>
<!DOCTYPE svg PUBLIC "-//W3C//DTD SVG 1.1//EN" "http://www.w3.org/Graphics/SVG/1.1/DTD/svg11.dtd">
<svg xmlns="http://www.w3.org/2000/svg" version="1.1" width="318px" height="511px" style="shape-rendering:geometricPrecision; text-rendering:geometricPrecision; image-rendering:optimizeQuality; fill-rule:evenodd; clip-rule:evenodd" xmlns:xlink="http://www.w3.org/1999/xlink">
<g><path style="opacity:1" fill="#0c7beb" d="M 23.5,-0.5 C 28.8333,-0.5 34.1667,-0.5 39.5,-0.5C 52.0196,3.85631 59.8529,12.523 63,25.5C 72.6899,94.3023 83.0232,162.969 94,231.5C 99.3562,234.651 102.356,232.984 103,226.5C 112.814,158.47 122.814,90.4704 133,22.5C 138.054,8.60347 147.888,0.9368 162.5,-0.5C 164.5,-0.5 166.5,-0.5 168.5,-0.5C 186.076,3.59066 195.076,14.7573 195.5,33C 188.801,84.8925 181.634,136.726 174,188.5C 167.062,195.04 162.729,203.04 161,212.5C 160.5,235.498 160.333,258.498 160.5,281.5C 138.497,281.333 116.497,281.5 94.5,282C 67.8571,286.332 47.3571,299.832 33,322.5C 32.368,295.432 30.7013,268.432 28,241.5C 18.8061,173.312 9.30606,105.312 -0.5,37.5C -0.5,33.5 -0.5,29.5 -0.5,25.5C 2.99313,12.6735 10.9931,4.00685 23.5,-0.5 Z"/></g>
<g><path style="opacity:1" fill="#0c7beb" d="M 198.5,185.5 C 218.491,184.064 231.657,192.73 238,211.5C 238.833,236.173 238.666,260.84 237.5,285.5C 234.713,283.773 231.713,282.606 228.5,282C 209.17,281.5 189.836,281.333 170.5,281.5C 170.333,258.498 170.5,235.498 171,212.5C 174.791,197.874 183.958,188.874 198.5,185.5 Z"/></g>
<g><path style="opacity:1" fill="#0c7beb" d="M 317.5,247.5 C 317.5,268.833 317.5,290.167 317.5,311.5C 309.492,333.008 294.158,341.175 271.5,336C 262,331.833 255.167,325 251,315.5C 249.875,303.554 249.375,291.554 249.5,279.5C 249.667,268.833 249.833,258.167 250,247.5C 258.398,224.885 274.231,217.051 297.5,224C 307.661,228.984 314.328,236.818 317.5,247.5 Z"/></g>
<g><path style="opacity:1" fill="#0c7beb" d="M 317.5,332.5 C 317.5,347.833 317.5,363.167 317.5,378.5C 309.917,433.19 281.584,473.024 232.5,498C 216.7,504.787 200.366,508.953 183.5,510.5C 178.5,510.5 173.5,510.5 168.5,510.5C 96.19,502.744 51.69,463.411 35,392.5C 29.1814,368.214 32.1814,345.214 44,323.5C 56.4535,305.513 73.6202,295.013 95.5,292C 139.833,291.333 184.167,291.333 228.5,292C 235.461,294.799 239.128,299.966 239.5,307.5C 236.744,336.42 221.078,353.254 192.5,358C 170.167,358.333 147.833,358.667 125.5,359C 121.283,362.473 121.616,365.473 126.5,368C 158.416,370.258 178.583,386.758 187,417.5C 188.153,428.463 188.819,439.463 189,450.5C 192.473,454.717 195.473,454.384 198,449.5C 202.971,416.041 192.138,389.208 165.5,369C 176.87,368.826 188.203,368.159 199.5,367C 221.473,361.433 236.973,348.267 246,327.5C 260.433,346.733 278.933,352.233 301.5,344C 307.392,340.893 312.725,337.059 317.5,332.5 Z"/></g>
</svg>
